<svg viewBox="0 0 50 50" xmlns="http://www.w3.org/2000/svg" fill-rule="evenodd" clip-rule="evenodd" stroke-linejoin="round" stroke-miterlimit="2"><path d="M19.464 3.885l-2.719 6.601-7.078-.934.946 7.077-6.597 2.73 4.358 5.655-4.348 5.663 6.601 2.719-.933 7.078 7.076-.945 2.73 6.596 5.656-4.357 5.663 4.347 2.719-6.601 7.078.934-.946-7.077 6.596-2.73-4.357-5.655 4.348-5.663-6.602-2.719.934-7.078-7.076.945-2.731-6.596-5.655 4.357-5.663-4.347zm2.168 8.063c7.204-1.936 14.624 2.339 16.561 9.543 1.937 7.203-2.339 14.624-9.542 16.561-7.204 1.936-14.624-2.339-16.561-9.543-1.937-7.203 2.339-14.624 9.542-16.561z"/><path d="M21.192 15.292a10.44 10.44 0 013.949-.771c5.784 0 10.48 4.695 10.48 10.479 0 5.784-4.696 10.479-10.48 10.479a10.44 10.44 0 01-3.949-.771c3.828-1.56 6.529-5.321 6.529-9.708 0-4.387-2.701-8.148-6.529-9.708z"/></svg>