<svg viewBox="0 0 100 100" xmlns="http://www.w3.org/2000/svg" fill-rule="evenodd" clip-rule="evenodd" stroke-linejoin="round" stroke-miterlimit="2"><circle cx="50" cy="50" r="49.867" fill="#0f0a0e"/><path d="M50 6.445c24.039 0 43.555 19.516 43.555 43.555S74.039 93.555 50 93.555 6.445 74.039 6.445 50 25.961 6.445 50 6.445zm0 9.435c18.832 0 34.12 15.288 34.12 34.12 0 18.832-15.288 34.12-34.12 34.12-18.832 0-34.12-15.288-34.12-34.12 0-18.832 15.288-34.12 34.12-34.12z" fill="#ffa4f7"/><path d="M71.796 61.954C67.568 69.642 59.388 74.858 50 74.858 36.28 74.858 25.142 63.72 25.142 50S36.28 25.142 50 25.142c9.388 0 17.568 5.216 21.796 12.904l-8.96 4.695C60.301 38.272 55.5 35.254 50 35.254c-8.138 0-14.746 6.608-14.746 14.746 0 8.138 6.608 14.746 14.746 14.746 5.5 0 10.301-3.018 12.836-7.487l8.96 4.695z" fill="#ffa4f7"/></svg>